<svg width="125" height="118" viewBox="0 0 125 118" fill="none" xmlns="http://www.w3.org/2000/svg">
<path d="M90.9736 11.314C86.6348 11.0496 82.3789 15.4539 82.6465 19.7229C82.6465 22.0476 83.5799 24.153 85.0835 25.6749C86.5966 27.2064 88.6704 28.1544 90.9545 28.1576V28.1447C98.3259 28.1447 102.079 19.0813 96.8414 13.7838C95.3315 12.2555 93.2577 11.3108 90.9704 11.3108L90.9736 11.314ZM110.6 57.3308C109.571 49.4152 106.43 42.1606 101.766 36.1667C88.989 44.7819 71.4683 35.6089 71.4683 19.739H71.4811L71.4779 19.7197C71.4779 14.2642 73.6536 9.3375 77.1705 5.77468C80.6874 2.21508 85.5581 0.0128971 90.9577 0.00967282V0C104.888 0 114.241 14.3319 109.001 27.2419C120.217 40.4034 122.119 52.7685 122.141 68.8092L37.3668 68.7061C29.0461 88.0549 0 82.2125 0 60.8163C0 50.3051 8.09136 41.6963 18.3648 41.1063C25.8159 23.8306 41.7119 11.3688 60.6024 8.75068L62.0964 19.9583C47.8314 21.9347 35.6721 31.0756 29.4474 43.834C34.28 46.7326 37.7108 51.6593 38.6983 57.3727H38.7079C38.9054 58.4948 39.0073 59.6491 39.0073 60.8292H39.0328C39.0265 63.6246 38.4371 66.2911 37.3859 68.7093L49.507 68.7254C50.1632 66.204 50.5168 63.5601 50.5232 60.8421H50.4818C50.4818 59.6684 50.4181 58.5077 50.2938 57.3695L110.6 57.3373V57.3308ZM105.49 89.838C100.932 89.838 97.1823 93.6394 97.1727 98.2565H97.1823C97.1823 105.714 106.137 109.516 111.371 104.215C112.884 102.683 113.821 100.581 113.824 98.2694H113.814C113.814 93.6104 110.058 89.8347 105.487 89.8347L105.49 89.838ZM105.516 78.5466C122.95 78.5498 131.443 99.9267 119.293 112.221C111.693 119.914 99.3708 119.92 91.7604 112.276C84.5929 115.826 76.527 117.821 68.0024 117.825V117.834C50.2875 117.834 33.9741 109.151 23.8695 94.7808L32.9643 88.2258C36.9304 93.8651 42.1961 98.5048 48.322 101.707C60.1659 107.894 74.3608 108.142 86.415 102.338C85.0516 95.7416 87.135 88.9384 91.7063 84.3116C95.2263 80.7487 100.107 78.5466 105.509 78.5466H105.513H105.516ZM25.3731 54.861C23.8599 53.3295 21.7861 52.3848 19.5021 52.3783V52.388C12.1339 52.388 8.37806 61.4514 13.6151 66.7522C15.1283 68.2837 17.2021 69.2284 19.4862 69.2348V69.2219C24.0829 69.2219 27.8101 65.4302 27.8196 60.813H27.8101C27.8101 58.4883 26.8767 56.3829 25.3731 54.861Z" fill="white"/>
</svg>
